<?xml version="1.0" encoding="UTF-8"?><svg id="Camada_2" xmlns="http://www.w3.org/2000/svg" viewBox="0 0 1641.31 586.04"><defs><style>.cls-1{fill:#ffb7ab;}.cls-2{fill:#31393c;}</style></defs><g id="background"><path class="cls-2" d="m921.86,43.19v244.41h-37.35v-112.41h-37.71v112.41h-37.35V43.19c0-9.79,7.98-17.41,17.41-17.41h77.6c9.43,0,17.41,7.62,17.41,17.41Zm-37.35,94.65v-57.29c0-9.79-7.98-17.41-17.41-17.41h-2.9c-9.43,0-17.41,7.61-17.41,17.41v57.29h37.71Z"/><path class="cls-2" d="m1056.03,25.78v261.82h-37.35l-37.71-149.76v149.76h-37.35V25.78h23.93c7.98,0,14.87,5.44,16.68,13.05l34.45,136.35V25.78h37.35Z"/><path class="cls-2" d="m1172.8,25.78c9.43,0,17.41,7.62,17.41,17.41v227c0,9.79-7.98,17.41-17.41,17.41h-95.01V25.78h95.01Zm-37.35,224.47c9.43,0,17.41-7.98,17.41-17.41V80.54c0-9.79-7.98-17.41-17.41-17.41h-20.31v187.11h20.31Z"/><path class="cls-2" d="m1305.16,157.05s19.22,5.44,19.22,27.56v102.99h-37.35v-95.01c0-9.43-7.98-17.41-17.41-17.41h-20.31v112.41h-37.35V25.78h95.01c9.43,0,17.41,7.62,17.41,17.41v87.76c0,18.86-19.22,26.11-19.22,26.11Zm-18.13-76.51c0-9.79-7.98-17.41-17.41-17.41h-20.31v74.7h20.31c9.43,0,17.41-7.62,17.41-17.41v-39.89Z"/><path class="cls-2" d="m1383.49,63.13v74.7h48.95v37.35h-48.95v75.06h57.66v37.35h-95.01V25.78h95.01v37.35h-57.66Z"/><path class="cls-2" d="m1495.17,287.6h-37.71V25.78h37.71v261.82Z"/><path class="cls-2" d="m884.51,433.29v-57.29c0-9.79-7.98-17.41-17.41-17.41h-2.9c-9.43,0-17.41,7.61-17.41,17.41v152.3c0,9.43,7.98,17.41,17.41,17.41h2.9c9.43,0,17.41-7.98,17.41-17.41v-57.66h37.35v95.01c0,9.79-7.98,17.41-17.41,17.41h-77.6c-9.43,0-17.41-7.62-17.41-17.41v-227c0-9.79,7.98-17.41,17.41-17.41h77.6c9.43,0,17.41,7.62,17.41,17.41v94.65h-37.35Z"/><path class="cls-2" d="m1036.82,452.51s19.22,5.44,19.22,27.56v102.99h-37.35v-95.01c0-9.43-7.98-17.41-17.41-17.41h-20.31v112.41h-37.35v-261.82h95.01c9.43,0,17.41,7.62,17.41,17.41v87.76c0,18.86-19.22,26.11-19.22,26.11Zm-18.13-76.51c0-9.79-7.98-17.41-17.41-17.41h-20.31v74.7h20.31c9.43,0,17.41-7.62,17.41-17.41v-39.89Z"/><path class="cls-2" d="m1095.2,321.24h77.6c9.43,0,17.41,7.62,17.41,17.41v227c0,9.79-7.98,17.41-17.41,17.41h-77.6c-9.43,0-17.41-7.62-17.41-17.41v-227c0-9.79,7.98-17.41,17.41-17.41Zm37.35,224.46h2.9c9.43,0,17.41-7.98,17.41-17.41v-152.3c0-9.79-7.98-17.41-17.41-17.41h-2.9c-9.43,0-17.41,7.61-17.41,17.41v152.3c0,9.43,7.98,17.41,17.41,17.41Z"/><path class="cls-2" d="m1249.68,583.06h-37.71v-261.82h37.71v261.82Z"/><path class="cls-2" d="m1378.41,358.59h-37.35v224.46h-37.71v-224.46h-37.35v-37.35h112.41v37.35Z"/><path class="cls-2" d="m1412.13,321.24h77.6c9.43,0,17.41,7.62,17.41,17.41v227c0,9.79-7.98,17.41-17.41,17.41h-77.6c-9.43,0-17.41-7.62-17.41-17.41v-227c0-9.79,7.98-17.41,17.41-17.41Zm37.35,224.46h2.9c9.43,0,17.41-7.98,17.41-17.41v-152.3c0-9.79-7.98-17.41-17.41-17.41h-2.9c-9.43,0-17.41,7.61-17.41,17.41v152.3c0,9.43,7.98,17.41,17.41,17.41Z"/><path class="cls-2" d="m1622.09,452.51s19.22,5.44,19.22,27.56v102.99h-37.35v-95.01c0-9.43-7.98-17.41-17.41-17.41h-20.31v112.41h-37.35v-261.82h95.01c9.43,0,17.41,7.62,17.41,17.41v87.76c0,18.86-19.22,26.11-19.22,26.11Zm-18.13-76.51c0-9.79-7.98-17.41-17.41-17.41h-20.31v74.7h20.31c9.43,0,17.41-7.62,17.41-17.41v-39.89Z"/><path class="cls-1" d="m207.75,586.04H20.03c-11.06,0-20.03-13.82-20.03-30.84v-109.55c0-17.78,9.75-31.92,21.27-30.8,40.58,3.98,76.32,15.73,108.56,35.61,35.65,21.99,62.64,50.84,88.75,78.77.2.21.39.41.58.62,16.12,17.23,8.21,56.2-11.42,56.2Z"/><path class="cls-1" d="m593.54,586.04h-218.77c-64.41,0-101.12-39.24-143.62-84.69-49.12-52.53-104.27-111.49-212.28-120.72-10.59-.91-18.87-14.45-18.87-30.8v-110.84c0-17.78,9.75-31.92,21.27-30.8,40.58,3.98,76.32,15.73,108.56,35.61,35.65,21.99,62.64,50.84,88.75,78.77,43.65,46.67,84.88,90.75,156.19,90.75,54.25,0,100.32,12.14,140.85,37.13,35.65,21.99,62.65,50.85,88.75,78.77.2.21.39.41.58.62,16.12,17.23,8.21,56.2-11.42,56.2Z"/><path class="cls-1" d="m749.54,441.4v110.08c0,18.94-10.99,33.52-23.14,30.47-44.5-11.16-75.08-43.86-109.46-80.61-53.47-57.17-114.06-121.96-242.17-121.96-64.41,0-101.12-39.24-143.62-84.69-49.12-52.53-104.27-111.49-212.28-120.72-10.59-.91-18.87-14.45-18.87-30.8V32.32C0,14.54,9.75.4,21.27,1.53c40.58,3.98,76.32,15.73,108.56,35.61,35.65,21.99,62.64,50.85,88.75,78.78,43.65,46.67,84.88,90.75,156.19,90.75,54.25,0,100.32,12.14,140.85,37.14,35.65,21.99,62.65,50.85,88.75,78.77,37.48,40.07,73.16,78.22,127.63,88.22,10.03,1.84,17.53,15.07,17.53,30.61Z"/><path class="cls-1" d="m749.54,234.75v110.08c0,18.94-10.99,33.52-23.14,30.47-44.5-11.15-75.08-43.86-109.46-80.61-53.47-57.17-114.06-121.96-242.17-121.96-64.41,0-101.12-39.26-143.62-84.69-9.63-10.3-19.5-20.86-29.96-31.23-16.8-16.69-9.17-56.81,10.83-56.81h162.75c54.25,0,100.32,12.14,140.85,37.14,35.65,21.99,62.65,50.85,88.75,78.78,37.48,40.07,73.16,78.22,127.63,88.22,10.03,1.84,17.53,15.05,17.53,30.61Z"/><path class="cls-1" d="m749.54,30.84v107.33c0,18.94-10.99,33.52-23.14,30.47-44.5-11.16-75.08-43.86-109.46-80.61-9.63-10.3-19.5-20.86-29.96-31.23-16.8-16.69-9.17-56.81,10.83-56.81h131.7c11.06,0,20.03,13.82,20.03,30.84Z"/></g></svg>