<?xml version="1.0" encoding="UTF-8"?><svg id="Camada_2" xmlns="http://www.w3.org/2000/svg" viewBox="0 0 831.86 557.27"><defs><style>.cls-1{fill:#31393c;}</style></defs><g id="background"><path class="cls-1" d="m112.41,17.41v244.41h-37.35v-112.41h-37.71v112.41H0V17.41C0,7.62,7.98,0,17.41,0h77.6c9.43,0,17.41,7.62,17.41,17.41Zm-37.35,94.65v-57.29c0-9.79-7.98-17.41-17.41-17.41h-2.9c-9.43,0-17.41,7.61-17.41,17.41v57.29h37.71Z"/><path class="cls-1" d="m246.58,0v261.82h-37.35l-37.71-149.76v149.76h-37.35V0h23.93c7.98,0,14.87,5.44,16.68,13.05l34.45,136.35V0h37.35Z"/><path class="cls-1" d="m363.35,0c9.43,0,17.41,7.62,17.41,17.41v227c0,9.79-7.98,17.41-17.41,17.41h-95.01V0h95.01Zm-37.35,224.47c9.43,0,17.41-7.98,17.41-17.41V54.76c0-9.79-7.98-17.41-17.41-17.41h-20.31v187.11h20.31Z"/><path class="cls-1" d="m495.71,131.27s19.22,5.44,19.22,27.56v102.99h-37.35v-95.01c0-9.43-7.98-17.41-17.41-17.41h-20.31v112.41h-37.35V0h95.01c9.43,0,17.41,7.62,17.41,17.41v87.76c0,18.86-19.22,26.11-19.22,26.11Zm-18.13-76.51c0-9.79-7.98-17.41-17.41-17.41h-20.31v74.7h20.31c9.43,0,17.41-7.62,17.41-17.41v-39.89Z"/><path class="cls-1" d="m574.04,37.35v74.7h48.95v37.35h-48.95v75.06h57.66v37.35h-95.01V0h95.01v37.35h-57.66Z"/><path class="cls-1" d="m685.72,261.82h-37.71V0h37.71v261.82Z"/><path class="cls-1" d="m75.06,407.51v-57.29c0-9.79-7.98-17.41-17.41-17.41h-2.9c-9.43,0-17.41,7.61-17.41,17.41v152.3c0,9.43,7.98,17.41,17.41,17.41h2.9c9.43,0,17.41-7.98,17.41-17.41v-57.66h37.35v95.01c0,9.79-7.98,17.41-17.41,17.41H17.41c-9.43,0-17.41-7.62-17.41-17.41v-227c0-9.79,7.98-17.41,17.41-17.41h77.6c9.43,0,17.41,7.62,17.41,17.41v94.65h-37.35Z"/><path class="cls-1" d="m227.37,426.73s19.22,5.44,19.22,27.56v102.99h-37.35v-95.01c0-9.43-7.98-17.41-17.41-17.41h-20.31v112.41h-37.35v-261.82h95.01c9.43,0,17.41,7.62,17.41,17.41v87.76c0,18.86-19.22,26.11-19.22,26.11Zm-18.13-76.51c0-9.79-7.98-17.41-17.41-17.41h-20.31v74.7h20.31c9.43,0,17.41-7.62,17.41-17.41v-39.89Z"/><path class="cls-1" d="m285.75,295.46h77.6c9.43,0,17.41,7.62,17.41,17.41v227c0,9.79-7.98,17.41-17.41,17.41h-77.6c-9.43,0-17.41-7.62-17.41-17.41v-227c0-9.79,7.98-17.41,17.41-17.41Zm37.35,224.46h2.9c9.43,0,17.41-7.98,17.41-17.41v-152.3c0-9.79-7.98-17.41-17.41-17.41h-2.9c-9.43,0-17.41,7.61-17.41,17.41v152.3c0,9.43,7.98,17.41,17.41,17.41Z"/><path class="cls-1" d="m440.23,557.27h-37.71v-261.82h37.71v261.82Z"/><path class="cls-1" d="m568.96,332.81h-37.35v224.46h-37.71v-224.46h-37.35v-37.35h112.41v37.35Z"/><path class="cls-1" d="m602.68,295.46h77.6c9.43,0,17.41,7.62,17.41,17.41v227c0,9.79-7.98,17.41-17.41,17.41h-77.6c-9.43,0-17.41-7.62-17.41-17.41v-227c0-9.79,7.98-17.41,17.41-17.41Zm37.35,224.46h2.9c9.43,0,17.41-7.98,17.41-17.41v-152.3c0-9.79-7.98-17.41-17.41-17.41h-2.9c-9.43,0-17.41,7.61-17.41,17.41v152.3c0,9.43,7.98,17.41,17.41,17.41Z"/><path class="cls-1" d="m812.64,426.73s19.22,5.44,19.22,27.56v102.99h-37.35v-95.01c0-9.43-7.98-17.41-17.41-17.41h-20.31v112.41h-37.35v-261.82h95.01c9.43,0,17.41,7.62,17.41,17.41v87.76c0,18.86-19.22,26.11-19.22,26.11Zm-18.13-76.51c0-9.79-7.98-17.41-17.41-17.41h-20.31v74.7h20.31c9.43,0,17.41-7.62,17.41-17.41v-39.89Z"/></g></svg>